<svg height="512" viewBox="0 0 42 60" width="512" xmlns="http://www.w3.org/2000/svg"><g id="Page-1" fill="none" fill-rule="evenodd"><g id="006---Farmer-Male" fill-rule="nonzero"><path id="Shape" d="m26 40s-3.04 2.72-4.38 3.79c-.3613398.2931937-.8786602.2931937-1.24 0-1.34-1.07-4.38-3.79-4.38-3.79 1.3168849-.9306018 2.0940385-2.4475458 2.08-4.06.298275.0405567.5989809.0606037.9.06h4.04c.3010191.0006037.601725-.0194433.9-.06-.0140385 1.6124542.7631151 3.1293982 2.08 4.06z" fill="#ffe0b2"/><path id="Shape" d="m11 40.08v18.92h-4c-1.10320187-.0032948-1.9967052-.8967981-2-2v-10c-.00498944-3.4799638 2.55444148-6.4318408 6-6.92z" fill="#ef314c"/><path id="Shape" d="m31 40.08v18.92h-4v-5c0-.5522847-.4477153-1-1-1h-10c-.5522847 0-1 .4477153-1 1v5h-4v-18.92c.330182-.0572191.6649206-.0839982 1-.08h4v7c.0032948 1.1032019.8967981 1.9967052 2 2h6c1.1032019-.0032948 1.9967052-.8967981 2-2v-7h4c.3350794-.0039982.669818.0227809 1 .08z" fill="#02a9f4"/><path id="Shape" d="m30 40h-3c.3350794-.0039982.669818.0227809 1 .08v18.92h3v-18.92c-.330182-.0572191-.6649206-.0839982-1-.08z" fill="#0377bc"/><path id="Shape" d="m26 40v7c-.0032948 1.1032019-.8967981 1.9967052-2 2h-3v-4.99c.2261132.0018928.4456523-.0760082.62-.22 1.34-1.07 4.38-3.79 4.38-3.79z" fill="#bb193b"/><path id="Shape" d="m21 44.01v4.99h-3c-1.1032019-.0032948-1.9967052-.8967981-2-2v-7s3.04 2.72 4.38 3.79c.1743477.1439918.3938868.2218928.62.22z" fill="#ef314c"/><path id="Shape" d="m37 47v10c-.0032948 1.1032019-.8967981 1.9967052-2 2h-4v-18.92c3.4455585.4881592 6.0049894 3.4400362 6 6.92z" fill="#ef314c"/><path id="Shape" d="m31 40.08v1.181c1.8816589 1.3043691 3.00298 3.4494564 3 5.739v10c-.0032948 1.1032019-.8967981 1.9967052-2 2h3c1.1032019-.0032948 1.9967052-.8967981 2-2v-10c.0049894-3.4799638-2.5544415-6.4318408-6-6.92z" fill="#bb193b"/><path id="Shape" d="m41 16c0 1.74-3.57 3.28-9 4.18-.3193958-.1211006-.6584234-.1821256-1-.18v-2.57c.0016619-1.0168346-.7599101-1.8730652-1.77-1.99-5.4709841-.5866682-10.9890159-.5866682-16.46 0-1.0100899.1169348-1.7716619.9731654-1.77 1.99v2.57c-.3415766-.0021256-.6806042.0588994-1 .18-5.43-.9-9-2.44-9-4.18 0-1.7 3.4-3.21 8.61-4.11 3.7651146-.6145222 7.5751303-.912232 11.39-.89 3.8148697-.022232 7.6248854.2754778 11.39.89 5.21.9 8.61 2.41 8.61 4.11z" fill="#ff5722"/><path id="Shape" d="m32.39 11.89c-3.7651146-.6145222-7.5751303-.912232-11.39-.89-3.8148697-.022232-7.6248854.2754778-11.39.89l4.99-9.16c.2666787-.47846935.7128587-.83109547 1.24-.98 1.6829113-.45981508 3.4158232-.71169182 5.16-.75 1.7441768.03830818 3.4770887.29018492 5.16.75.5271413.14890453.9733213.50153065 1.24.98z" fill="#ff9801"/><path id="Shape" d="m30.44 25.94-.5 4.16c-.4858084 3.0682092-2.9384611 5.4475267-6.02 5.84-.298275.0405567-.5989809.0606037-.9.06h-4.04c-.3010191.0006037-.601725-.0194433-.9-.06-3.0815389-.3924733-5.5341916-2.7717908-6.02-5.84l-.5-4.16s2.44 2.06 4.44 2.06 3-2 5-2 3 2 5 2 4.44-2.06 4.44-2.06z" fill="#a0522d"/><path id="Shape" d="m27.218 27.787-.278 2.313c-.4858084 3.0682092-2.9384611 5.4475267-6.02 5.84-.298275.0405567-.5989809.0606037-.9.0600132l3-.0000132c.3010191.0006037.601725-.0194433.9-.06 3.0815389-.3924733 5.5341916-2.7717908 6.02-5.84l.5-4.16c-.9630102.7917251-2.0521613 1.4160771-3.222 1.847z" fill="#783e22"/><path id="Shape" d="m34 23c0 1.6568542-1.3431458 3-3 3-.1882886.0003363-.3760566-.0197817-.56-.06 0 0-2.44 2.06-4.44 2.06s-3-2-5-2-3 2-5 2-4.44-2.06-4.44-2.06c-.1839434.0402183-.3717114.0603363-.56.06-1.45200487-.0112653-2.687509-1.0608126-2.93339863-2.4918903-.24588964-1.4310777.56842927-2.8328283 1.93339863-3.3281097.3193958-.1211006.6584234-.1821256 1-.18v-2.57c-.0016619-1.0168346.7599101-1.8730652 1.77-1.99 5.4709841-.5866682 10.9890159-.5866682 16.46 0 1.0100899.1169348 1.7716619.9731654 1.77 1.99v2.57c.3415766-.0021256.6806042.0588994 1 .18 1.201836.41463 2.0061167 1.5486659 2 2.82z" fill="#ffe0b2"/><path id="Shape" d="m32 20.18c-.3193958-.1211006-.6584234-.1821256-1-.18v-2.57c.0016619-1.0168346-.7599101-1.8730652-1.77-1.99-2.7331826-.2975553-5.4806716-.4444441-8.23-.44-.507 0-1 .011-1.5.02 2.38.045 4.654.188 6.73.42 1.0100899.1169348 1.7716619.9731654 1.77 1.99v2.57c.3415766-.0021256.6806042.0588994 1 .18 1.3649694.4952814 2.1792883 1.897032 1.9333986 3.3281097-.2458896 1.4310777-1.4813937 2.480625-2.9333986 2.4918903-.1882886.0003363-.3760566-.0197817-.56-.06-.8602792.7035693-1.8165927 1.2807247-2.84 1.714.4339745.2211248.9129806.3395078 1.4.346 2 0 4.44-2.06 4.44-2.06.1839434.0402183.3717114.0603363.56.06 1.4520049-.0112653 2.687509-1.0608126 2.9333986-2.4918903.2458897-1.4310777-.5684292-2.8328283-1.9333986-3.3281097z" fill="#dfc49c"/><path id="Shape" d="m27 54v5h-12v-5c0-.5522847.4477153-1 1-1h10c.5522847 0 1 .4477153 1 1z" fill="#00bcd4"/><path id="Shape" d="m26 53h-3c.5522847 0 1 .4477153 1 1v5h3v-5c0-.5522847-.4477153-1-1-1z" fill="#00838f"/><path id="Shape" d="m7.7 20.759c-.80834728 1.1733647-.92795927 2.689278-.31363628 3.9748975.61432298 1.2856195 1.86889704 2.1448889 3.28963628 2.2531025l.4 3.268c.4892918 3.1548826 2.8175292 5.7114943 5.913 6.493-.1785449.8885469-.664286 1.6858421-1.372 2.252h-3.617c-4.41622192.0049599-7.99504012 3.5837781-8 8v10c0 1.6568542 1.34314575 3 3 3h28c1.6568542 0 3-1.3431458 3-3v-10c-.0049599-4.4162219-3.5837781-7.9950401-8-8h-3.617c-.7076676-.5660321-1.1931212-1.3634366-1.371-2.252 3.1054869-.7895985 5.4368172-3.3611909 5.919-6.529l.39-3.232c1.4212793-.107228 2.6767869-.9661133 3.2918142-2.2519104.6150272-1.2857971.4957189-2.8022894-.3128142-3.9760896 3.885-.84 7.7-2.291 7.7-4.759 0-2.432-3.789-4.082-8.971-5.026l-4.758-8.735c-.3995602-.71460105-1.0687385-1.23935498-1.858-1.457-1.7642113-.48753485-3.5829383-.75028093-5.413-.782-1.8370038.03225861-3.6625272.29703174-5.433.788-.785676.22175085-1.4500173.74854293-1.845 1.463l-4.751 8.723c-5.182.944-8.971 2.594-8.971 5.026 0 2.468 3.815 3.919 7.7 4.759zm15.323 16.241c.191822 1.1196015.7081817 2.1582319 1.485 2.987-.99.876-2.627 2.312-3.5 3.014h-.008c-.878-.7-2.514-2.137-3.5-3.014.7744451-.8293883 1.2880599-1.8680935 1.477-2.987zm-5.023 11c-.5522847 0-1-.4477153-1-1v-4.78c.94.824 2.06 1.793 2.754 2.348.0785345.0516291.1607558.097419.246.137v3.295zm4-3.3c.085028-.0396262.1672228-.0850672.246-.136.694-.555 1.814-1.524 2.754-2.348v4.784c0 .5522847-.4477153 1-1 1h-2zm-16 12.3v-10c.00290243-2.540182 1.6050913-4.8032738 4-5.65v16.65h-3c-.55228475 0-1-.4477153-1-1zm10 1v-4h10v4zm20-11v10c0 .5522847-.4477153 1-1 1h-3v-16.65c2.3949087.8467262 3.9970976 3.109818 4 5.65zm-6 11h-2v-4c0-1.1045695-.8954305-2-2-2h-10c-1.1045695 0-2 .8954305-2 2v4h-2v-17h3v6c0 1.6568542 1.3431458 3 3 3h6c1.6568542 0 3-1.3431458 3-3v-6h3zm-6.976-23h-4.048c-2.941695.0157187-5.4553235-2.1161949-5.92-5.021l-.239-1.979c.9624351.5904236 2.055828.9339338 3.183 1 1.1155177-.0598172 2.1841011-.4683623 3.055-1.168.5508667-.4650734 1.2282086-.7548156 1.945-.832.7167914.0771844 1.3941333.3669266 1.945.832.8708989.6996377 1.9394823 1.1081828 3.055 1.168 1.1274549-.066231 2.2211325-.4097228 3.184-1l-.234 1.941c-.4521198 2.9199597-2.9712676 5.0705451-5.926 5.059zm7.976-10c-.238 0-.787-.173-1.2.175-.608.508-2.467 1.825-3.8 1.825-.7167914-.0771844-1.3941333-.3669266-1.945-.832-.8708989-.6996377-1.9394823-1.1081828-3.055-1.168-1.1155177.0598172-2.1841011.4683623-3.055 1.168-.5508667.4650734-1.2282086.7548156-1.945.832-1.333 0-3.192-1.317-3.8-1.825-.437-.375-.873-.175-1.2-.175-1.1045695 0-2-.8954305-2-2s.8954305-2 2-2c.5522847 0 1-.4477153 1-1v-2.569c-.0032162-.5113473.3798588-.9427381.888-1 2.693775-.295713 5.4020562-.4396071 8.112-.431 2.710332-.0075809 5.4189445.1373147 8.113.434.5077443.0577344.8902719.4889943.887 1v2.566c0 .5522847.4477153 1 1 1 1.1045695 0 2 .8954305 2 2s-.8954305 2-2 2zm-15.529-21.779c.1336993-.24182136.3570943-.42139936.622-.5 1.5987611-.44609415 3.2474908-.68834687 4.907-.721 1.6527604.03121921 3.2950119.27043425 4.888.712.2690715.07639915.4969906.25614612.634.5l4.019 7.379c-3.1644591-.4004415-6.3513123-.59784536-9.541-.591-3.1896022-.00817205-6.3764551.1878957-9.541.587zm5.529 8.779c12.294 0 19 2.643 19 4 0 .592-1.95 2.128-7.928 3.152-.025-.007-.047-.019-.072-.026v-1.7c.0016363-1.5269137-1.1438653-2.8114595-2.661-2.984-2.7691584-.3038434-5.5532379-.4514106-8.339-.442-2.7855244-.0077805-5.569273.1414562-8.338.447-1.5175313.17207-2.66357882 1.4567453-2.662 2.984v1.7c-.025.007-.047.019-.072.026-5.978-1.029-7.928-2.565-7.928-3.157 0-1.357 6.706-4 19-4z" fill="#000"/></g></g></svg>